<mxfile host="65bd71144e">
    <diagram id="5qdnU4kHTbRDPLAeaYvL" name="Page-1">
        <mxGraphModel dx="871" dy="624" grid="1" gridSize="10" guides="1" tooltips="1" connect="1" arrows="1" fold="1" page="1" pageScale="1" pageWidth="850" pageHeight="1100" background="#4A4A4A" math="0" shadow="0">
            <root>
                <mxCell id="0"/>
                <mxCell id="1" parent="0"/>
                <mxCell id="2" value="&lt;font&gt;userEntry (Write)&lt;/font&gt;" style="rounded=1;whiteSpace=wrap;html=1;fillColor=#ffe6cc;strokeColor=#d79b00;glass=0;shadow=0;direction=east;fontColor=#000000;" parent="1" vertex="1">
                    <mxGeometry x="20" y="600" width="130" height="60" as="geometry"/>
                </mxCell>
                <mxCell id="4" value="displayEntry (Display)" style="rounded=1;whiteSpace=wrap;html=1;fillColor=#ffe6cc;strokeColor=#d79b00;glass=0;shadow=0;fontColor=#000000;" parent="1" vertex="1">
                    <mxGeometry x="20" y="530" width="130" height="60" as="geometry"/>
                </mxCell>
                <mxCell id="5" value="loadEntry (Load)" style="rounded=1;whiteSpace=wrap;html=1;fillColor=#ffe6cc;strokeColor=#d79b00;glass=0;shadow=0;fontColor=#000000;" parent="1" vertex="1">
                    <mxGeometry x="20" y="460" width="130" height="60" as="geometry"/>
                </mxCell>
                <mxCell id="6" value="saveEntry (Save)" style="rounded=1;whiteSpace=wrap;html=1;fillColor=#ffe6cc;strokeColor=#d79b00;glass=0;shadow=0;fontColor=#000000;verticalAlign=middle;" parent="1" vertex="1">
                    <mxGeometry x="20" y="390" width="130" height="60" as="geometry"/>
                </mxCell>
                <mxCell id="7" value="quitEntry (Quit)" style="rounded=1;whiteSpace=wrap;html=1;fillColor=#ffe6cc;strokeColor=#d79b00;glass=0;shadow=0;fontColor=#000000;" parent="1" vertex="1">
                    <mxGeometry x="20" y="670" width="130" height="60" as="geometry"/>
                </mxCell>
                <mxCell id="10" value="Journal" style="rounded=1;whiteSpace=wrap;html=1;fillColor=#ffe6cc;strokeColor=#d79b00;glass=0;shadow=0;direction=east;fontColor=#000000;" parent="1" vertex="1">
                    <mxGeometry x="20" y="40" width="130" height="60" as="geometry"/>
                </mxCell>
                <mxCell id="11" value="List&amp;lt;Entry&amp;gt;" style="rounded=1;whiteSpace=wrap;html=1;fillColor=#ffe6cc;strokeColor=#d79b00;glass=0;shadow=0;fontColor=#000000;" parent="1" vertex="1">
                    <mxGeometry x="20" y="200" width="130" height="60" as="geometry"/>
                </mxCell>
                <mxCell id="15" value="Attributes" style="rounded=1;whiteSpace=wrap;html=1;fillColor=#ffe6cc;strokeColor=#d79b00;glass=0;shadow=0;fontColor=#000000;" parent="1" vertex="1">
                    <mxGeometry x="20" y="120" width="130" height="60" as="geometry"/>
                </mxCell>
                <mxCell id="16" value="" style="line;strokeWidth=2;html=1;rounded=1;shadow=0;glass=0;sketch=0;fontColor=#000000;fillColor=default;gradientColor=none;" parent="1" vertex="1">
                    <mxGeometry x="5" y="280" width="160" height="10" as="geometry"/>
                </mxCell>
                <mxCell id="17" value="Entry" style="rounded=1;whiteSpace=wrap;html=1;fillColor=#ffe6cc;strokeColor=#d79b00;glass=0;shadow=0;direction=east;fontColor=#000000;" parent="1" vertex="1">
                    <mxGeometry x="320" y="40" width="130" height="60" as="geometry"/>
                </mxCell>
                <mxCell id="21" value="Behaviors" style="rounded=1;whiteSpace=wrap;html=1;fillColor=#ffe6cc;strokeColor=#d79b00;glass=0;shadow=0;direction=east;fontColor=#000000;" parent="1" vertex="1">
                    <mxGeometry x="20" y="300" width="130" height="60" as="geometry"/>
                </mxCell>
                <mxCell id="22" value="Attributes" style="rounded=1;whiteSpace=wrap;html=1;fillColor=#ffe6cc;strokeColor=#d79b00;glass=0;shadow=0;direction=east;fontColor=#000000;" parent="1" vertex="1">
                    <mxGeometry x="320" y="120" width="130" height="60" as="geometry"/>
                </mxCell>
                <mxCell id="32" value="Date / Time" style="rounded=1;whiteSpace=wrap;html=1;fillColor=#ffe6cc;strokeColor=#d79b00;glass=0;shadow=0;direction=east;fontColor=#000000;" parent="1" vertex="1">
                    <mxGeometry x="320" y="190" width="130" height="60" as="geometry"/>
                </mxCell>
                <mxCell id="33" value="Prompt Used" style="rounded=1;whiteSpace=wrap;html=1;fillColor=#ffe6cc;strokeColor=#d79b00;glass=0;shadow=0;direction=east;fontColor=#000000;" parent="1" vertex="1">
                    <mxGeometry x="320" y="260" width="130" height="60" as="geometry"/>
                </mxCell>
                <mxCell id="35" value="Text" style="rounded=1;whiteSpace=wrap;html=1;fillColor=#ffe6cc;strokeColor=#d79b00;glass=0;shadow=0;direction=east;fontColor=#000000;" parent="1" vertex="1">
                    <mxGeometry x="320" y="330" width="130" height="60" as="geometry"/>
                </mxCell>
                <mxCell id="36" value="Behaviors" style="rounded=1;whiteSpace=wrap;html=1;fillColor=#ffe6cc;strokeColor=#d79b00;glass=0;shadow=0;direction=east;fontColor=#000000;" parent="1" vertex="1">
                    <mxGeometry x="320" y="500" width="130" height="60" as="geometry"/>
                </mxCell>
                <mxCell id="37" value="displayPrompt" style="rounded=1;whiteSpace=wrap;html=1;fillColor=#ffe6cc;strokeColor=#d79b00;glass=0;shadow=0;direction=east;fontColor=#000000;" parent="1" vertex="1">
                    <mxGeometry x="320" y="580" width="130" height="60" as="geometry"/>
                </mxCell>
                <mxCell id="40" value="Prompt" style="rounded=1;whiteSpace=wrap;html=1;fillColor=#ffe6cc;strokeColor=#d79b00;glass=0;shadow=0;direction=east;fontColor=#000000;" parent="1" vertex="1">
                    <mxGeometry x="620" y="40" width="130" height="60" as="geometry"/>
                </mxCell>
                <mxCell id="41" value="Attributes" style="rounded=1;whiteSpace=wrap;html=1;fillColor=#ffe6cc;strokeColor=#d79b00;glass=0;shadow=0;direction=east;fontColor=#000000;" parent="1" vertex="1">
                    <mxGeometry x="620" y="120" width="130" height="60" as="geometry"/>
                </mxCell>
                <mxCell id="42" value="List&amp;lt;Prompts&amp;gt;" style="rounded=1;whiteSpace=wrap;html=1;fillColor=#ffe6cc;strokeColor=#d79b00;glass=0;shadow=0;direction=east;fontColor=#000000;" parent="1" vertex="1">
                    <mxGeometry x="620" y="190" width="130" height="60" as="geometry"/>
                </mxCell>
                <mxCell id="43" value="Behaviors" style="rounded=1;whiteSpace=wrap;html=1;fillColor=#ffe6cc;strokeColor=#d79b00;glass=0;shadow=0;direction=east;fontColor=#000000;" parent="1" vertex="1">
                    <mxGeometry x="620" y="260" width="130" height="60" as="geometry"/>
                </mxCell>
                <mxCell id="44" value="ReturnRandomPrompt" style="rounded=1;whiteSpace=wrap;html=1;fillColor=#ffe6cc;strokeColor=#d79b00;glass=0;shadow=0;direction=east;fontColor=#000000;" parent="1" vertex="1">
                    <mxGeometry x="620" y="330" width="130" height="60" as="geometry"/>
                </mxCell>
            </root>
        </mxGraphModel>
    </diagram>
</mxfile>